<svg width="320" height="320" viewBox="0 0 320 320" fill="none" xmlns="http://www.w3.org/2000/svg">
<rect width="320" height="320" fill="#CC703C"/>
<path fill-rule="evenodd" clip-rule="evenodd" d="M250.625 44.0625L249.215 47.46L244.576 58.3301L241.496 65.3397C218.11 117.877 199.916 142.812 180.578 142.812C169.434 142.812 162.838 139.895 154.299 133.049L151.834 131.016C145.69 125.871 143.103 124.606 137.193 124.606C134.112 124.606 128.6 128.187 121.626 136.547C114.393 145.216 106.461 158.023 97.9372 174.891L97.1433 176.47L180.109 176.473L169.778 195.921H92.3042V275.781H69.5312V44.0625H250.625ZM218.343 63.5171L92.3029 63.5101V140.735C107.404 116.967 121.754 105.034 137.193 105.034C149.196 105.034 156.268 108.101 165.191 115.238L167.737 117.334C173.473 122.138 175.683 123.24 180.578 123.24C185.991 123.24 200.326 102.597 218.343 63.5171Z" fill="white"/>
</svg>
