<svg width="320" height="320" viewBox="0 0 320 320" fill="none" xmlns="http://www.w3.org/2000/svg">
<rect width="320" height="320" rx="160" fill="#CC703C"/>
<path fill-rule="evenodd" clip-rule="evenodd" d="M237 62L235.809 64.8591L231.889 74.0067L229.287 79.9056C209.529 124.118 194.158 145.102 177.82 145.102C168.404 145.102 162.832 142.647 155.617 136.885L153.535 135.175C148.344 130.845 146.158 129.78 141.165 129.78C138.562 129.78 133.905 132.794 128.013 139.829C121.902 147.124 115.201 157.902 107.999 172.097L107.328 173.426L177.423 173.428L168.695 189.795H103.24V257H84V62H237ZM209.726 78.3718L103.239 78.3659V143.354C115.998 123.352 128.122 113.31 141.165 113.31C151.306 113.31 157.281 115.89 164.82 121.897L166.97 123.661C171.817 127.704 173.684 128.631 177.82 128.631C182.393 128.631 194.504 111.259 209.726 78.3718Z" fill="white"/>
</svg>
